---
title: "WinFF Help"
date: 2010-07-31
forum: Multimedia Software
---

### Post by TimEnid on 2010-07-31
i am trying to convert a mkv blu ray to play on my zune. but i keep getting this:

Output #0, asf, to '/media/Buffalo/Zune Movies/alli-shelter-720p.wmv':
    Stream #0.0(eng): Video: wmv2, yuv420p, 320x240 [PAR 30:17 DAR 40:17], q=2-31, 640 kb/s, 90k tbn, 23.97 tbc
    Stream #0.1: Audio: wmav2, 48000 Hz, 5.1, s16, 128 kb/s
Stream mapping:
  Stream #0.0 -> #0.0
  Stream #0.1 -> #0.1
Error while opening codec for output stream #0.1 - maybe incorrect parameters such as bit_rate, rate, width or height

i did not make any changes to the additional options. I was able to convert another mkv file with no issues. any suggestions?

---

